<svg xmlns="http://www.w3.org/2000/svg" id="mainsvg" width="346.746533203125" height="505.4400037765503" viewBox="-10 -10 315.22412109375 460.40000343322754"><defs><marker id="arrow" viewBox="0 0 10 10" refX="10" refY="5" markerWidth="5" markerHeight="5" orient="auto-start-reverse" fill="black"><path stroke="black" d="M 0 0 L 10 5 L 0 10 z"/></marker><marker id="Many" viewBox="0 0 16 16" refX="15" refY="8" markerWidth="15" markerHeight="15" orient="auto-start-reverse"><path stroke="black" d="M0 8H15M15 15L2 8L15 1" fill="none"/></marker><marker id="ZeroOrOne" viewBox="0 0 16 10" refX="15" refY="5" markerWidth="21" markerHeight="21" orient="auto-start-reverse"><path d="M9 5H16" stroke="black" fill="none"/><circle cx="5" cy="5" r="4.5" stroke="black" fill="#fff"/><path d="M12 0L12 10" stroke="black" fill="none"/></marker><marker id="OneOnlyOne" viewBox="0 0 10 14" refX="10" refY="7" markerWidth="13" markerHeight="13" orient="auto-start-reverse"><path d="M0 7H4M4 7H7M4 7V0M4 7V14M7 7H10M7 7V0M7 7V14" stroke="black" fill="none"/></marker><marker id="OneOrMany" viewBox="0 0 16 16" refX="15" refY="8" markerWidth="15" markerHeight="15" orient="auto-start-reverse"><path stroke="black" d="M2 1V15M2 8L15 15M2 8L15 1M2 8H0M2 8H15" fill="none"/></marker><marker id="ZeroOrMany" viewBox="0 0 25 16" refX="23" refY="8" markerWidth="25" markerHeight="25" orient="auto-start-reverse"><path d="M13 8H27M27 15L14 8L27 1" stroke="black" fill="none"/><path d="M13.5 7.5C13.5 10.7795 10.6254 13.5 7 13.5C3.37461 13.5 0.5 10.7795 0.5 7.5C0.5 4.22054 3.37461 1.5 7 1.5C10.6254 1.5 13.5 4.22054 13.5 7.5Z" stroke="black" fill="#fff"/></marker><marker id="aggregation" viewBox="0 0 10 6" refX="9.3" refY="2.8" markerWidth="23" markerHeight="15" orient="auto-start-reverse"><path stroke="black" fill="#fff" stroke-width="0.7" d="M1.01614 2.82609L5 0.574341L8.98386 2.82609L5 5.07783L1.01614 2.82609Z"/></marker><marker id="composition" viewBox="0 0 10 6" refX="9.7" refY="2.8" markerWidth="18" markerHeight="15" orient="auto-start-reverse"><path stroke="black" fill="black" d="M1.01614 2.82609L5 0.574341L8.98386 2.82609L5 5.07783L1.01614 2.82609Z"/></marker><marker id="implementation" viewBox="0 0 8 10" refX="8" refY="5" markerWidth="20" markerHeight="20" orient="auto-start-reverse"><path stroke="black" fill="#fff" stroke-width="0.7" d="M0.750001 1.10289L7.5 5L0.750001 8.89712L0.750001 1.10289Z"/></marker><marker id="dependency" viewBox="0 0 12 12" refX="11" refY="6" markerWidth="12" markerHeight="11" orient="auto-start-reverse"><path stroke="black" fill="#fff" d="M1 5.93162H10.886M10.886 5.93162L1 0.5M10.886 5.93162L1 11"/></marker><marker id="inheritance" viewBox="0 0 8 10" refX="8" refY="5" markerWidth="20" markerHeight="20" orient="auto-start-reverse"><path stroke="black" fill="#fff" stroke-width="0.7" d="M0.750001 1.10289L7.5 5L0.750001 8.89712L0.750001 1.10289Z"/></marker><marker id="association" viewBox="0 0 12 12" refX="11" refY="6" markerWidth="12" markerHeight="11" orient="auto-start-reverse"><path stroke="black" d="M1 5.93162H10.886M10.886 5.93162L1 0.5M10.886 5.93162L1 11"/></marker><filter id="shadowOLD" x="-50%" y="-50%" width="250%" height="250%"><feDropShadow flood-color="black" flood-opacity="0.3" dx="1" dy="1" stdDeviation="2"> </feDropShadow></filter><filter id="shadow-path" filterUnits="userSpaceOnUse" x="-10" y="-10" width="315.22412109375px" height="450.40000343322754px"><feDropShadow flood-color="black" flood-opacity="0.1" dx="1" dy="1" stdDeviation="1"> </feDropShadow></filter><filter id="shadow" filterUnits="userSpaceOnUse" x="-10" y="-10" width="415.22412109375px" height="550.4000034332275px"><feDropShadow flood-color="black" flood-opacity="0.1" dx="1" dy="1" stdDeviation="1"> </feDropShadow></filter></defs><rect x="-10" y="-10" width="315.22412109375" height="450.40000343322754" fill="#fff"/><path transform="rotate(0,0, 0) scale(1)" d="M139.01171875,33.60000038146973L139.01171875,39.06666707992554C139.01171875,44.53333377838135,139.01171875,55.46666717529297,139.01171875,66.40000057220459C139.01171875,77.33333396911621,139.01171875,88.26666736602783,139.01171875,93.73333406448364L139.01171875,99.20000076293945" stroke="black" stroke-dasharray="none" stroke-width="2" fill="none" marker-end="url(#arrow)"/><g transform="translate(88.22216796875, 50.60000038146973)"><rect width="101.5791015625" height="31.600000381469727" stroke="none" fill="white" stroke-width="0" transform="translate(0, 0)" rx="0"/><g transform="translate(4, 4)"><g transform="translate(0, 0)"><rect width="93.5791015625" height="23.600000381469727" stroke="none" fill="white" stroke-width="0" transform="translate(0, 0)" rx="2"/><text fill="black" font-size="14" font-weight="normal" transform="translate(4, 4)" alignment-baseline="middle" font-family="Arial"><tspan x="0" dy="14" font-family="Arial" font-size="14" font-weight="normal">POST /orders</tspan></text></g></g></g><path transform="rotate(0,0, 0) scale(1)" d="M139.01171875,132.80000114440918L139.01171875,138.266667842865C139.01171875,143.7333345413208,139.01171875,154.66666793823242,139.01171875,165.60000133514404C139.01171875,176.53333473205566,139.01171875,187.46666812896729,139.01171875,192.9333348274231L139.01171875,198.4000015258789" stroke="black" stroke-dasharray="none" stroke-width="2" fill="none" marker-end="url(#arrow)"/><g transform="translate(70.31884765625, 149.80000114440918)"><rect width="137.3857421875" height="31.600000381469727" stroke="none" fill="white" stroke-width="0" transform="translate(0, 0)" rx="0"/><g transform="translate(4, 4)"><g transform="translate(0, 0)"><rect width="129.3857421875" height="23.600000381469727" stroke="none" fill="white" stroke-width="0" transform="translate(0, 0)" rx="2"/><text fill="black" font-size="14" font-weight="normal" transform="translate(4, 4)" alignment-baseline="middle" font-family="Arial"><tspan x="0" dy="14" font-family="Arial" font-size="14" font-weight="normal">triggers place-order</tspan></text></g></g></g><path transform="rotate(0,0, 0) scale(1)" d="M110.29416572143936,232.00000190734863L100.9495651845328,237.46666860580444C91.60496464762623,242.93333530426025,72.91576357381312,253.86666870117188,63.57116303690656,264.8000020980835C54.2265625,275.7333354949951,54.2265625,286.66666889190674,54.2265625,292.13333559036255L54.2265625,297.60000228881836" stroke="black" stroke-dasharray="none" stroke-width="2" fill="none" marker-end="url(#arrow)"/><g transform="translate(21.32666015625, 249.00000190734863)"><rect width="65.7998046875" height="31.600000381469727" stroke="none" fill="white" stroke-width="0" transform="translate(0, 0)" rx="0"/><g transform="translate(4, 4)"><g transform="translate(0, 0)"><rect width="57.7998046875" height="23.600000381469727" stroke="none" fill="white" stroke-width="0" transform="translate(0, 0)" rx="2"/><text fill="black" font-size="14" font-weight="normal" transform="translate(4, 4)" alignment-baseline="middle" font-family="Arial"><tspan x="0" dy="14" font-family="Arial" font-size="14" font-weight="normal">put item</tspan></text></g></g></g><path transform="rotate(0,0, 0) scale(1)" d="M167.72927177856064,232.00000190734863L177.07387231546718,237.46666860580444C186.41847285237375,242.93333530426025,205.10767392618686,253.86666870117188,214.45227446309343,264.8000020980835C223.796875,275.7333354949951,223.796875,286.66666889190674,223.796875,292.13333559036255L223.796875,297.60000228881836" stroke="black" stroke-dasharray="none" stroke-width="2" fill="none" marker-end="url(#arrow)"/><g transform="translate(152.36962890625, 249.00000190734863)"><rect width="142.8544921875" height="31.600000381469727" stroke="none" fill="white" stroke-width="0" transform="translate(0, 0)" rx="0"/><g transform="translate(4, 4)"><g transform="translate(0, 0)"><rect width="134.8544921875" height="23.600000381469727" stroke="none" fill="white" stroke-width="0" transform="translate(0, 0)" rx="2"/><text fill="black" font-size="14" font-weight="normal" transform="translate(4, 4)" alignment-baseline="middle" font-family="Arial"><tspan x="0" dy="14" font-family="Arial" font-size="14" font-weight="normal">publish order-placed</tspan></text></g></g></g><path transform="rotate(0,0, 0) scale(1)" d="M223.796875,331.2000026702881L223.796875,336.6666693687439C223.796875,342.1333360671997,223.796875,353.0666694641113,223.796875,364.00000286102295C223.796875,374.93333625793457,223.796875,385.8666696548462,223.796875,391.333336353302L223.796875,396.8000030517578" stroke="black" stroke-dasharray="none" stroke-width="2" fill="none" marker-end="url(#arrow)"/><g transform="translate(167.92822265625, 348.2000026702881)"><rect width="111.7373046875" height="31.600000381469727" stroke="none" fill="white" stroke-width="0" transform="translate(0, 0)" rx="0"/><g transform="translate(4, 4)"><g transform="translate(0, 0)"><rect width="103.7373046875" height="23.600000381469727" stroke="none" fill="white" stroke-width="0" transform="translate(0, 0)" rx="2"/><text fill="black" font-size="14" font-weight="normal" transform="translate(4, 4)" alignment-baseline="middle" font-family="Arial"><tspan x="0" dy="14" font-family="Arial" font-size="14" font-weight="normal">E2E test queue</tspan></text></g></g></g><g transform="translate(77.375, 99.20000076293945)"><rect width="123.2734375" height="33.60000038146973" stroke="black" fill="white" stroke-width="2" transform="translate(0, 0)" rx="3"/><g transform="translate(8, 8)"><g transform="translate(0, 0)"><rect width="107.2734375" height="17.600000381469727" stroke="none" fill="white" stroke-width="0" transform="translate(0, 0)" rx="3"/><text fill="black" font-size="16" font-weight="normal" transform="translate(0, 0)" alignment-baseline="middle" font-family="Arial"><tspan x="0" dy="16" font-family="Arial" font-size="16" font-weight="normal">API GATEWAY</tspan></text></g></g></g><g transform="translate(102.5625, 0)"><rect width="72.8984375" height="33.60000038146973" stroke="black" fill="white" stroke-width="2" transform="translate(0, 0)" rx="3"/><g transform="translate(8, 8)"><g transform="translate(0, 0)"><rect width="56.8984375" height="17.600000381469727" stroke="none" fill="white" stroke-width="0" transform="translate(0, 0)" rx="3"/><text fill="black" font-size="16" font-weight="normal" transform="translate(0, 0)" alignment-baseline="middle" font-family="Arial"><tspan x="0" dy="16" font-family="Arial" font-size="16" font-weight="normal">CLIENT</tspan></text></g></g></g><g transform="translate(98.11328125, 198.4000015258789)"><rect width="81.796875" height="33.60000038146973" stroke="black" fill="white" stroke-width="2" transform="translate(0, 0)" rx="3"/><g transform="translate(8, 8)"><g transform="translate(0, 0)"><rect width="65.796875" height="17.600000381469727" stroke="none" fill="white" stroke-width="0" transform="translate(0, 0)" rx="3"/><text fill="black" font-size="16" font-weight="normal" transform="translate(0, 0)" alignment-baseline="middle" font-family="Arial"><tspan x="0" dy="16" font-family="Arial" font-size="16" font-weight="normal">LAMBDA</tspan></text></g></g></g><g transform="translate(0, 297.60000228881836)"><rect width="108.453125" height="33.60000038146973" stroke="black" fill="white" stroke-width="2" transform="translate(0, 0)" rx="3"/><g transform="translate(8, 8)"><g transform="translate(0, 0)"><rect width="92.453125" height="17.600000381469727" stroke="none" fill="white" stroke-width="0" transform="translate(0, 0)" rx="3"/><text fill="black" font-size="16" font-weight="normal" transform="translate(0, 0)" alignment-baseline="middle" font-family="Arial"><tspan x="0" dy="16" font-family="Arial" font-size="16" font-weight="normal">DYNAMODB</tspan></text></g></g></g><g transform="translate(158.453125, 297.60000228881836)"><rect width="130.6875" height="33.60000038146973" stroke="black" fill="white" stroke-width="2" transform="translate(0, 0)" rx="3"/><g transform="translate(8, 8)"><g transform="translate(0, 0)"><rect width="114.6875" height="17.600000381469727" stroke="none" fill="white" stroke-width="0" transform="translate(0, 0)" rx="3"/><text fill="black" font-size="16" font-weight="normal" transform="translate(0, 0)" alignment-baseline="middle" font-family="Arial"><tspan x="0" dy="16" font-family="Arial" font-size="16" font-weight="normal">EVENTBRIDGE</tspan></text></g></g></g><g transform="translate(198.90234375, 396.8000030517578)"><rect width="49.7890625" height="33.60000038146973" stroke="black" fill="white" stroke-width="2" transform="translate(0, 0)" rx="3"/><g transform="translate(8, 8)"><g transform="translate(0, 0)"><rect width="33.7890625" height="17.600000381469727" stroke="none" fill="white" stroke-width="0" transform="translate(0, 0)" rx="3"/><text fill="black" font-size="16" font-weight="normal" transform="translate(0, 0)" alignment-baseline="middle" font-family="Arial"><tspan x="0" dy="16" font-family="Arial" font-size="16" font-weight="normal">SQS</tspan></text></g></g></g></svg>